
<?xml version="1.0" standalone="no"?><!DOCTYPE svg PUBLIC "-//W3C//DTD SVG 1.1//EN" "http://www.w3.org/Graphics/SVG/1.1/DTD/svg11.dtd"><svg t="1684667651023" class="icon" viewBox="0 0 1024 1024" version="1.1" xmlns="http://www.w3.org/2000/svg" p-id="25247" xmlns:xlink="http://www.w3.org/1999/xlink" width="200" height="200"><path d="M896 640a42.666667 42.666667 0 0 1 4.992 85.034667L896 725.333333h-136.704c-40.917333 0-73.088 27.306667-76.373333 60.288l-0.256 5.546667V896a42.666667 42.666667 0 0 1-85.034667 4.992L597.333333 896v-104.832c0-81.706667 68.693333-146.858667 153.429334-150.954667l8.533333-0.213333H896zM265.984 640c85.077333 0 155.989333 62.378667 160.426667 142.634667l0.256 8.106666V896a42.666667 42.666667 0 0 1-85.034667 4.992L341.333333 896v-105.301333c0-33.365333-29.568-62.165333-68.736-65.109334L265.984 725.333333H128a42.666667 42.666667 0 0 1-4.992-85.034666L128 640h137.984zM640 128a42.666667 42.666667 0 0 1 42.368 37.674667L682.666667 170.666667v132.096c0 43.050667 30.976 77.653333 69.504 80.981333l6.144 0.256H896a42.666667 42.666667 0 0 1 4.992 85.034667L896 469.333333h-137.685333c-86.613333 0-156.501333-70.4-160.768-158.037333l-0.213334-8.533333V170.666667a42.666667 42.666667 0 0 1 42.666667-42.666667zM384 128a42.666667 42.666667 0 0 1 42.368 37.674667L426.666667 170.666667v108.416c0 79.957333-67.882667 143.36-151.338667 147.370666L266.922667 426.666667H128a42.666667 42.666667 0 0 1-4.992-85.034667L128 341.333333h138.922667c39.722667 0 70.826667-25.856 74.112-56.746666L341.333333 279.082667V170.666667a42.666667 42.666667 0 0 1 42.666667-42.666667z" p-id="25248"></path></svg>
