
<?xml version="1.0" standalone="no"?><!DOCTYPE svg PUBLIC "-//W3C//DTD SVG 1.1//EN" "http://www.w3.org/Graphics/SVG/1.1/DTD/svg11.dtd"><svg t="1684668397191" class="icon" viewBox="0 0 1024 1024" version="1.1" xmlns="http://www.w3.org/2000/svg" p-id="2435" xmlns:xlink="http://www.w3.org/1999/xlink" width="200" height="200"><path d="M768 352a224 224 0 0 1 0 448h-32a32 32 0 0 1 0-64h32a160 160 0 0 0 0-320 147.2 147.2 0 0 0-27.84 2.56 32 32 0 0 1-38.08-27.52 192 192 0 0 0-380.16 0 32 32 0 0 1-38.08 27.52A147.2 147.2 0 0 0 256 416a160 160 0 0 0 0 320h32a32 32 0 0 1 0 64h-32a224 224 0 0 1 0-448h8.32a256 256 0 0 1 495.36 0z" fill="#808080" p-id="2436"></path><path d="M480 608a32 32 0 0 1 64 0v288a32 32 0 0 1-64 0z" fill="#808080" p-id="2437"></path><path d="M600 746.88a32 32 0 0 1 48 42.24l-112 128a32 32 0 0 1-48 0l-112-128a32 32 0 1 1 48-42.24l88 100.48z" fill="#808080" p-id="2438"></path></svg>
