
<?xml version="1.0" standalone="no"?><!DOCTYPE svg PUBLIC "-//W3C//DTD SVG 1.1//EN" "http://www.w3.org/Graphics/SVG/1.1/DTD/svg11.dtd"><svg t="1684668077073" class="icon" viewBox="0 0 1024 1024" version="1.1" xmlns="http://www.w3.org/2000/svg" p-id="1874" xmlns:xlink="http://www.w3.org/1999/xlink" width="200" height="200"><path d="M192 352a32 32 0 0 1-32-32V192a32 32 0 0 1 32-32h128a32 32 0 0 1 32 32v128a32 32 0 0 1-32 32z m32-64h64v-64h-64z m224 64a32 32 0 0 1-32-32V192a32 32 0 0 1 32-32h128a32 32 0 0 1 32 32v128a32 32 0 0 1-32 32z m32-64h64v-64h-64z m224 64a32 32 0 0 1-32-32V192a32 32 0 0 1 32-32h128a32 32 0 0 1 32 32v128a32 32 0 0 1-32 32z m32-64h64v-64h-64zM192 608a32 32 0 0 1-32-32V448a32 32 0 0 1 32-32h128a32 32 0 0 1 32 32v128a32 32 0 0 1-32 32z m32-64h64v-64h-64z m224 64a32 32 0 0 1-32-32V448a32 32 0 0 1 32-32h128a32 32 0 0 1 32 32v128a32 32 0 0 1-32 32z m32-64h64v-64h-64z m224 64a32 32 0 0 1-32-32V448a32 32 0 0 1 32-32h128a32 32 0 0 1 32 32v128a32 32 0 0 1-32 32z m32-64h64v-64h-64zM192 864a32 32 0 0 1-32-32V704a32 32 0 0 1 32-32h128a32 32 0 0 1 32 32v128a32 32 0 0 1-32 32z m32-64h64v-64h-64z m224 64a32 32 0 0 1-32-32V704a32 32 0 0 1 32-32h128a32 32 0 0 1 32 32v128a32 32 0 0 1-32 32z m32-64h64v-64h-64z m224 64a32 32 0 0 1-32-32V704a32 32 0 0 1 32-32h128a32 32 0 0 1 32 32v128a32 32 0 0 1-32 32z m32-64h64v-64h-64z" p-id="1875"></path></svg>
